<svg id="Layer_1" data-name="Layer 1" xmlns="http://www.w3.org/2000/svg" xmlns:xlink="http://www.w3.org/1999/xlink" viewBox="0 0 140.59 30"><defs><style>.cls-1{fill:none;}.cls-2{clip-path:url(#clip-path);}.cls-3{fill:#00b4ff;}</style><clipPath id="clip-path" transform="translate(0 0)"><rect class="cls-1" width="140.59" height="30"/></clipPath></defs><title>logo</title><g class="cls-2"><path class="cls-3" d="M9,26.37L8.58,26a5,5,0,0,1-4-4.91l0.42-.42H8.57L9,20.23V17.68l-0.42-.41H5.05l-0.42-.42a4.68,4.68,0,0,1,4-5l0.4-.4V8.42L8.62,8C2.64,8.56,0,13.38,0,19,0,24.8,2.88,29.2,8.65,29.83L9,29.49V26.37Z" transform="translate(0 0)"/><path class="cls-3" d="M10.39,29.51l0.37,0.37c4.65-.24,7.37-3.08,7.77-6.3l-0.42-.42H14.74l-0.42.42a3.79,3.79,0,0,1-3.55,2.5l-0.39.39v3Z" transform="translate(0 0)"/><path class="cls-3" d="M10.76,8l-0.37.37v3.05l0.4,0.4c3.6,0.55,4,3.82,4,5l-0.42.42H10.8l-0.41.41v2.54l0.41,0.41H19l0.42-.42V19c0-5.57-2.64-10.39-8.61-10.91" transform="translate(0 0)"/><path class="cls-3" d="M45.17,8a7.79,7.79,0,0,0-5.59,2.12,10.17,10.17,0,0,1,1.06,2.76L41,13.13a4.29,4.29,0,0,1,3.3-1.33c3.37,0,3.79,2.11,3.79,4.63V29.06l0.42,0.42h3.37l0.42-.42V16.43c0-4.63-1.26-8.42-7.16-8.42" transform="translate(0 0)"/><polygon class="cls-3" points="26.63 8.03 23.27 8.03 22.84 8.45 22.84 29.06 23.27 29.48 26.64 29.48 27.05 29.07 27.05 8.45 26.63 8.03"/><path class="cls-3" d="M35.65,8.47A7.09,7.09,0,0,0,33,8a6.8,6.8,0,0,0-4.5,1.44v3l0.36,0.36a4.57,4.57,0,0,1,2.88-1c3.37,0,3.79,2.11,3.79,4.63V29.06l0.42,0.42h3.37l0.42-.42V17.55c0-6-2.19-8.25-4-9.07" transform="translate(0 0)"/><path class="cls-3" d="M66.53,8A7,7,0,0,0,62,9.52V12.4L62.6,13a5.12,5.12,0,0,1,3.5-1.17c3.37,0,5.48,2.53,5.48,7.16s-2.11,7.16-5.48,7.16a5.12,5.12,0,0,1-3.5-1.17L62,25.52v2.88a7,7,0,0,0,4.49,1.51c5.47,0,9.27-4.63,9.27-11,0-6.74-3.79-11-9.27-11" transform="translate(0 0)"/><polygon class="cls-3" points="60.63 0.42 60.21 0 56.84 0 56.42 0.42 56.42 29.06 56.84 29.48 60.21 29.48 60.63 29.06 60.63 0.42"/><path class="cls-3" d="M87.88,8.1c-6.32,0-8.42,3.37-8.42,6.32l0.42,0.42h3.37l0.42-.42c0-1.69,1.26-2.53,4.21-2.53s4.21,0.84,4.21,3.79V29.16l0.42,0.42h3.37l0.42-.42V17.36C96.3,11,94.2,8.1,87.88,8.1" transform="translate(0 0)"/><path class="cls-3" d="M90.69,17.09l-0.4-.4a17.71,17.71,0,0,0-2.41-.17c-5.48,0-9.27,2.11-9.27,6.74,0,4.21,2.53,6.74,7.16,6.74a7.81,7.81,0,0,0,4.92-1.55V25.66l-0.39-.39a6.76,6.76,0,0,1-3.69.94c-2.53,0-3.79-.84-3.79-2.95s1.68-3.37,5.48-3.37a14.42,14.42,0,0,1,2,.13l0.4-.4V17.09Z" transform="translate(0 0)"/><path class="cls-3" d="M110.09,29.61L110.46,30c5.35-.3,8-3.53,8.45-7.14l-0.42-.42h-3.37l-0.42.42c-0.38,1.54-1.47,3.07-4.21,3.33l-0.4.4v3Z" transform="translate(0 0)"/><path class="cls-3" d="M108.69,26.46l-0.37-.37c-3-.54-4.57-3-4.57-7s1.61-6.5,4.56-7l0.38-.38V8.51l-0.35-.35c-5.53.55-8.8,4.63-8.8,10.89s3.27,10.34,8.8,10.89l0.35-.35V26.46Z" transform="translate(0 0)"/><path class="cls-3" d="M114.69,15.26l0.42,0.42h3.37l0.42-.42c-0.4-3.61-3.09-6.83-8.43-7.14l-0.39.39v3l0.4,0.4c2.74,0.26,3.83,1.8,4.21,3.33" transform="translate(0 0)"/><polygon class="cls-3" points="126.69 0.59 126.27 0.17 122.9 0.17 122.48 0.59 122.48 29.16 122.9 29.58 126.27 29.58 126.69 29.16 126.69 0.59"/><path class="cls-3" d="M132.59,8.1a7,7,0,0,0-4.49,1.52v2.88L128.57,13a5.44,5.44,0,0,1,3.59-1.08c3.37,0,4.21,2.53,4.21,5.05V29.16l0.42,0.42h3.37l0.42-.42V16.94c0-4.63-1.69-8.85-8-8.85" transform="translate(0 0)"/></g></svg>