<?xml version="1.0" encoding="utf-8"?>
<!-- Generator: Adobe Illustrator 16.0.0, SVG Export Plug-In . SVG Version: 6.00 Build 0)  -->
<!DOCTYPE svg PUBLIC "-//W3C//DTD SVG 1.1//EN" "http://www.w3.org/Graphics/SVG/1.1/DTD/svg11.dtd">
<svg version="1.1" id="Layer_1" xmlns="http://www.w3.org/2000/svg" xmlns:xlink="http://www.w3.org/1999/xlink" x="0px" y="0px"
	 width="325px" height="50px" viewBox="0 0 325 50" enable-background="new 0 0 325 50" xml:space="preserve">
<g>
	<defs>
		<rect id="SVGID_1_" width="325" height="50"/>
	</defs>
	<clipPath id="SVGID_2_">
		<use xlink:href="#SVGID_1_"  overflow="visible"/>
	</clipPath>
	<path clip-path="url(#SVGID_2_)" fill="#004FA2" d="M299.2,4.263c-0.688-0.611-1.455-0.917-2.3-0.917
		c-0.69,0-1.351,0.231-1.986,0.681c-0.922,0.622-1.385,1.427-1.385,2.418v0.424h-0.391c-0.798,0-1.506,0.395-2.119,1.185
		c-0.559,0.716-0.837,1.496-0.837,2.343v0.028h-0.056v-0.028c0-0.809-0.292-1.6-0.88-2.371c-0.586-0.772-1.27-1.157-2.052-1.157
		h-0.391V6.446c0-0.827-0.355-1.549-1.063-2.17c-0.711-0.62-1.481-0.93-2.313-0.93c-0.833,0-1.598,0.316-2.298,0.946
		c-0.701,0.63-1.05,1.35-1.05,2.158v21.949c0,0.848,0.344,1.581,1.035,2.202c0.689,0.62,1.461,0.931,2.312,0.931
		c0.832,0,1.603-0.315,2.313-0.945c0.708-0.631,1.063-1.35,1.063-2.159v-14.53c0,1.071,0.294,1.928,0.884,2.567
		c0.589,0.64,1.414,0.96,2.479,0.96c2.241,0,3.361-1.176,3.361-3.527v14.505c0,1.034,0.455,1.862,1.366,2.483l-0.026-0.029
		c0.619,0.45,1.297,0.675,2.031,0.675c0.827,0,1.591-0.311,2.286-0.931c0.696-0.621,1.043-1.346,1.043-2.173V6.45
		C300.229,5.604,299.887,4.875,299.2,4.263 M287.982,11.576c-0.266,0.395-0.579,0.593-0.939,0.593h-2.079v16.3
		c0,0.376-0.185,0.701-0.549,0.975c-0.365,0.272-0.744,0.409-1.138,0.409c-0.411,0-0.791-0.137-1.139-0.408
		c-0.348-0.273-0.52-0.607-0.52-1.002V6.486c0-0.376,0.179-0.701,0.535-0.974c0.355-0.273,0.73-0.409,1.123-0.409
		c0.394,0,0.772,0.136,1.138,0.407c0.364,0.271,0.549,0.594,0.549,0.968v2.163h2.079c0.397,0,0.72,0.193,0.968,0.578
		c0.247,0.387,0.372,0.786,0.372,1.2C288.383,10.795,288.249,11.181,287.982,11.576 M290.165,15.656
		c-1.117,0-1.675-0.594-1.675-1.782c0-1.151,0.558-1.727,1.675-1.727c1.115,0,1.674,0.576,1.674,1.727
		C291.839,15.062,291.28,15.656,290.165,15.656 M296.938,29.92c-1.125,0-1.687-0.589-1.687-1.765s0.562-1.764,1.687-1.764
		c1.104,0,1.657,0.588,1.657,1.764S298.043,29.92,296.938,29.92"/>
	<path clip-path="url(#SVGID_2_)" fill="#FFE01A" d="M275.82,26.831c-0.236-0.376-0.551-0.563-0.945-0.563h-11.698v-7.093h8.802
		c0.397,0,0.715-0.189,0.961-0.569c0.243-0.379,0.366-0.776,0.366-1.194c0-0.417-0.123-0.816-0.366-1.195
		c-0.246-0.379-0.563-0.569-0.961-0.569h-8.802V8.591h12.19c0.395,0,0.715-0.205,0.959-0.615c0.225-0.355,0.339-0.738,0.339-1.148
		c0-0.448-0.133-0.854-0.396-1.219c-0.265-0.363-0.612-0.546-1.044-0.546h-14.444c-0.301,0-0.616,0.156-0.946,0.466
		c-0.328,0.31-0.493,0.616-0.493,0.916v21.939c0,0.263,0.149,0.563,0.452,0.902c0.301,0.338,0.583,0.507,0.848,0.507h14.232
		c0.395,0,0.716-0.207,0.96-0.62c0.225-0.357,0.339-0.744,0.339-1.156C276.173,27.603,276.055,27.207,275.82,26.831"/>
	<path clip-path="url(#SVGID_2_)" fill="#FFE01A" d="M246.055,25.997c-1.343,0-2.014,0.701-2.014,2.105s0.671,2.107,2.014,2.107
		c1.317,0,1.979-0.703,1.979-2.107S247.372,25.997,246.055,25.997"/>
	<path clip-path="url(#SVGID_2_)" fill="#FFE01A" d="M230.459,26.628c-0.3-0.416-0.696-0.624-1.189-0.624h-8.204
		c-0.494,0-0.895,0.208-1.206,0.624c-0.311,0.417-0.465,0.881-0.465,1.393c0,0.472,0.128,0.909,0.385,1.314
		c0.301,0.47,0.676,0.705,1.126,0.705h8.493c0.449,0,0.824-0.235,1.126-0.705c0.257-0.405,0.385-0.843,0.385-1.314
		C230.909,27.509,230.76,27.045,230.459,26.628"/>
	<path clip-path="url(#SVGID_2_)" fill="#FFE01A" d="M231.887,8.264c-1.357,0-2.035,0.695-2.035,2.084
		c0,1.413,0.678,2.119,2.035,2.119c1.311,0,1.967-0.706,1.967-2.119C233.854,8.959,233.197,8.264,231.887,8.264"/>
	<path clip-path="url(#SVGID_2_)" fill="#FFE01A" d="M197.573,6.165c0-0.401-0.198-0.747-0.59-1.038
		c-0.393-0.291-0.8-0.437-1.223-0.437s-0.826,0.146-1.209,0.437s-0.573,0.637-0.573,1.038v8.368c0,0.422,0.187,0.778,0.558,1.07
		c0.373,0.29,0.78,0.435,1.225,0.435c0.423,0,0.83-0.145,1.223-0.435c0.392-0.292,0.59-0.638,0.59-1.04V6.165z"/>
	<path clip-path="url(#SVGID_2_)" fill="#FFE01A" d="M211.043,6.14c0-0.424-0.187-0.778-0.56-1.061
		c-0.373-0.281-0.783-0.423-1.227-0.423c-0.423,0-0.833,0.147-1.226,0.439c-0.394,0.293-0.591,0.641-0.591,1.045v8.419
		c0,0.405,0.197,0.757,0.591,1.061c0.393,0.303,0.803,0.454,1.226,0.454c0.443,0,0.854-0.142,1.227-0.424
		c0.373-0.282,0.56-0.636,0.56-1.06V6.14z"/>
	<path clip-path="url(#SVGID_2_)" fill="#FFE01A" d="M173.767,22.421c-1.354,0-2.031,0.694-2.031,2.08
		c0,1.41,0.677,2.114,2.031,2.114c1.308,0,1.964-0.704,1.964-2.114C175.73,23.115,175.074,22.421,173.767,22.421"/>
	<path clip-path="url(#SVGID_2_)" fill="#FFE01A" d="M185.514,5.542c-0.285-0.393-0.659-0.589-1.123-0.589h-7.738
		c-0.465,0-0.845,0.196-1.139,0.589s-0.439,0.831-0.439,1.313c0,0.445,0.121,0.857,0.364,1.241c0.283,0.442,0.638,0.663,1.062,0.663
		h8.013c0.424,0,0.778-0.221,1.061-0.663c0.243-0.384,0.364-0.796,0.364-1.241C185.938,6.374,185.797,5.936,185.514,5.542"/>
	<path clip-path="url(#SVGID_2_)" fill="#FFE01A" d="M163.56,5.521c-0.291-0.402-0.675-0.603-1.153-0.603h-7.943
		c-0.478,0-0.868,0.201-1.169,0.603c-0.301,0.402-0.451,0.851-0.451,1.346c0,0.454,0.124,0.878,0.374,1.269
		c0.29,0.454,0.653,0.681,1.09,0.681h8.224c0.437,0,0.8-0.227,1.091-0.681c0.248-0.391,0.375-0.815,0.375-1.269
		C163.997,6.372,163.851,5.922,163.56,5.521"/>
	<path clip-path="url(#SVGID_2_)" fill="#FFE01A" d="M163.663,26.694c-0.297-0.407-0.688-0.612-1.176-0.612h-8.103
		c-0.488,0-0.886,0.205-1.193,0.612c-0.307,0.409-0.46,0.864-0.46,1.366c0,0.439,0.143,0.88,0.429,1.319s0.641,0.66,1.065,0.66
		h8.389c0.445,0,0.815-0.231,1.112-0.691c0.254-0.398,0.382-0.827,0.382-1.288C164.108,27.559,163.96,27.104,163.663,26.694"/>
	<path clip-path="url(#SVGID_2_)" fill="#FFE01A" d="M139.93,15.269c-1.415,0-2.122,0.726-2.122,2.175
		c0,1.473,0.707,2.21,2.122,2.21c1.369,0,2.053-0.737,2.053-2.21C141.983,15.995,141.299,15.269,139.93,15.269"/>
	<path clip-path="url(#SVGID_2_)" fill="#FFE01A" d="M143.268,25.819c-1.435,0-2.151,0.735-2.151,2.205
		c0,1.494,0.716,2.241,2.151,2.241c1.388,0,2.082-0.747,2.082-2.241C145.35,26.555,144.656,25.819,143.268,25.819"/>
	<path clip-path="url(#SVGID_2_)" fill="#FFE01A" d="M115.483,25.868c-1.33,0-1.994,0.694-1.994,2.086
		c0,1.39,0.664,2.086,1.994,2.086c1.306,0,1.961-0.696,1.961-2.086C117.444,26.562,116.789,25.868,115.483,25.868"/>
	<path clip-path="url(#SVGID_2_)" fill="#FFE01A" d="M102.162,6.269c0-0.427-0.187-0.782-0.56-1.066s-0.781-0.427-1.224-0.427
		c-0.423,0-0.831,0.148-1.224,0.442c-0.393,0.295-0.589,0.645-0.589,1.051v4.662c0,0.427,0.191,0.783,0.574,1.067
		c0.383,0.284,0.795,0.426,1.239,0.426c0.443,0,0.851-0.137,1.224-0.411s0.56-0.625,0.56-1.052V6.269z"/>
	<path clip-path="url(#SVGID_2_)" fill="#FFE01A" d="M97.026,18.917c-1.343,0-2.014,0.688-2.014,2.063
		c0,1.4,0.671,2.099,2.014,2.099c1.298,0,1.949-0.699,1.949-2.099C98.976,19.604,98.324,18.917,97.026,18.917"/>
	<path clip-path="url(#SVGID_2_)" fill="#FFE01A" d="M80.297,27.067c-0.239-0.382-0.373-1.074-0.773-1.074L67.046,26.05
		l-0.068-6.748h8.926c0.401,0,0.725-0.192,0.973-0.576c0.248-0.385,0.372-0.789,0.372-1.212c0-0.423-0.124-0.827-0.372-1.212
		c-0.248-0.384-0.433-0.807-0.833-0.807l-8.885-0.057l-0.181-6.867h12.361c0.4,0,0.725-0.208,0.973-0.625
		c0.229-0.359,0.343-0.748,0.343-1.164c0-0.454-0.134-0.866-0.401-1.235s-0.62-0.554-1.059-0.554H65.047
		c-0.306,0-0.625,0.158-0.959,0.472c-0.334,0.315-0.501,0.624-0.501,0.93v22.247c0,0.267,0.152,0.571,0.458,0.915
		c0.305,0.343,0.591,0.515,0.859,0.515h14.434c0.4,0,0.725-0.21,0.974-0.629c0.229-0.363,0.343-0.755,0.343-1.175
		S80.537,27.448,80.297,27.067"/>
	<path clip-path="url(#SVGID_2_)" fill="#FFE01A" d="M36.44,26.803c-0.235-0.376-0.55-0.563-0.945-0.563h-12.19v-7.093h8.803
		c0.395,0,0.714-0.19,0.959-0.57c0.245-0.378,0.367-0.777,0.367-1.194s-0.122-0.815-0.367-1.195
		c-0.245-0.379-0.564-0.569-0.959-0.569h-8.803V8.563h12.19c0.395,0,0.715-0.205,0.959-0.617c0.226-0.354,0.34-0.736,0.34-1.147
		c0-0.448-0.133-0.854-0.396-1.218c-0.264-0.364-0.612-0.546-1.045-0.546H21.401c-0.301,0-0.514-0.272-0.919-0.475
		C19.643,4.14,19.27,5.826,19.27,6.126v22.148c0,0.264,0.217,1.111,0.52,1.45c0.3,0.338,1.207,0.041,1.47,0.041h14.234
		c0.395,0,0.715-0.206,0.96-0.62c0.226-0.357,0.34-0.743,0.34-1.157C36.794,27.573,36.675,27.179,36.44,26.803"/>
	<path clip-path="url(#SVGID_2_)" fill="#004FA2" d="M37.76,29.232c-0.545,1.507-1.458,2.261-2.738,2.261H20.8
		c-0.735,0-1.412-0.339-2.033-1.016s-0.931-1.382-0.931-2.116V6.412c0-0.79,0.32-1.504,0.959-2.144
		c0.64-0.639,1.355-0.959,2.145-0.959h13.942c0.903,0,1.646,0.352,2.229,1.056c0.584,0.704,0.875,1.515,0.875,2.435
		c0,0.413-0.075,0.826-0.225,1.238c-0.546,1.502-1.458,2.252-2.738,2.252H24.496v3.602h7.14c0.846,0,1.562,0.387,2.145,1.16
		c0.546,0.698,0.818,1.482,0.818,2.35c0,0.414-0.075,0.83-0.225,1.245c-0.546,1.509-1.459,2.264-2.738,2.264h-7.14v3.6h10.527
		c0.847,0,1.552,0.364,2.117,1.089c0.564,0.727,0.846,1.521,0.846,2.389C37.985,28.402,37.911,28.817,37.76,29.232 M35.974,26.803
		c-0.235-0.376-0.55-0.563-0.945-0.563h-12.19v-7.093h8.803c0.395,0,0.714-0.19,0.959-0.57c0.245-0.378,0.367-0.777,0.367-1.194
		s-0.122-0.815-0.367-1.195c-0.245-0.379-0.564-0.569-0.959-0.569h-8.803V8.563h12.19c0.395,0,0.715-0.205,0.959-0.617
		c0.226-0.354,0.339-0.736,0.339-1.147c0-0.448-0.132-0.854-0.396-1.218c-0.263-0.364-0.611-0.546-1.044-0.546H20.935
		c-0.301,0-0.616,0.155-0.945,0.466c-0.33,0.31-0.495,0.615-0.495,0.916v21.939c0,0.264,0.15,0.563,0.452,0.902
		c0.301,0.338,0.583,0.507,0.847,0.507h14.234c0.395,0,0.715-0.206,0.96-0.62c0.226-0.357,0.339-0.743,0.339-1.157
		C36.327,27.573,36.208,27.179,35.974,26.803"/>
	<path clip-path="url(#SVGID_2_)" fill="#004FA2" d="M167.487,7.801c-0.678-0.622-1.448-0.932-2.314-0.932h-0.057V6.841
		c0-0.902-0.291-1.71-0.876-2.424c-0.583-0.714-1.316-1.071-2.201-1.071h-7.195c-0.904,0-1.647,0.353-2.23,1.057
		c-0.583,0.705-0.875,1.517-0.875,2.438v0.028h-0.055c-0.867,0-1.638,0.31-2.315,0.932c-0.678,0.621-1.016,1.354-1.016,2.201v14.901
		c0,0.809,0.353,1.524,1.058,2.144c0.705,0.621,1.463,0.934,2.273,0.934h0.055v0.055c0,0.828,0.217,1.552,0.65,2.173h-0.028
		c0.602,0.882,1.382,1.323,2.342,1.323h7.449c1.28,0,2.192-0.752,2.738-2.255c0.151-0.414,0.227-0.828,0.227-1.241V27.98h0.057
		c0.809,0,1.566-0.308,2.273-0.919c0.705-0.61,1.06-1.32,1.06-2.13V10.002C168.506,9.155,168.166,8.422,167.487,7.801
		 M151.633,12.479c-1.124,0-1.686-0.588-1.686-1.764c0-1.176,0.562-1.764,1.686-1.764c1.105,0,1.658,0.588,1.658,1.764
		C153.291,11.891,152.738,12.479,151.633,12.479 M163.152,29.188c-0.264,0.41-0.596,0.615-0.992,0.615h-7.479
		c-0.378,0-0.694-0.196-0.949-0.587c-0.255-0.393-0.382-0.785-0.382-1.177c0-0.448,0.136-0.854,0.41-1.218s0.628-0.546,1.063-0.546
		h7.224c0.434,0,0.783,0.182,1.048,0.546c0.264,0.364,0.396,0.77,0.396,1.218C163.491,28.451,163.379,28.833,163.152,29.188
		 M155.041,10.34h6.761v14.195h-6.761V10.34z M163.152,8c-0.264,0.413-0.596,0.619-0.992,0.619h-7.479
		c-0.396,0-0.727-0.206-0.992-0.619c-0.226-0.356-0.339-0.741-0.339-1.154c0-0.45,0.136-0.858,0.41-1.224
		c0.274-0.366,0.628-0.549,1.063-0.549h7.224c0.434,0,0.783,0.183,1.048,0.549c0.264,0.366,0.396,0.774,0.396,1.224
		C163.491,7.259,163.379,7.644,163.152,8 M166.893,23.877c0,0.378-0.18,0.704-0.536,0.979c-0.356,0.274-0.731,0.411-1.125,0.411
		c-0.393,0-0.772-0.142-1.138-0.425c-0.365-0.284-0.547-0.615-0.547-0.993v-4.256c0-0.378,0.182-0.709,0.547-0.993
		c0.365-0.283,0.745-0.425,1.138-0.425c0.413,0,0.792,0.133,1.14,0.397c0.347,0.265,0.521,0.596,0.521,0.993V23.877z"/>
	<path clip-path="url(#SVGID_2_)" fill="#004FA2" d="M211.562,4.263c-0.685-0.611-1.447-0.917-2.292-0.917
		c-0.786,0-1.527,0.301-2.221,0.903c-0.75,0.639-1.124,1.372-1.124,2.2v7.503h-6.8V6.449c0-0.828-0.353-1.552-1.058-2.172
		c-0.705-0.621-1.473-0.931-2.301-0.931s-1.59,0.315-2.286,0.945c-0.695,0.631-1.044,1.35-1.044,2.159v7.842
		c0,0.846,0.344,1.58,1.032,2.201c0.687,0.621,1.451,0.93,2.298,0.93h0.058v0.029c0,0.677,0.15,1.308,0.451,1.89
		c0.545,1.073,1.384,1.609,2.512,1.609h0.396v7.448c0,0.828,0.349,1.557,1.044,2.187c0.695,0.629,1.458,0.945,2.286,0.945
		c0.866,0,1.638-0.301,2.314-0.903c0.678-0.602,1.016-1.335,1.016-2.2v-7.477h0.396c1.279,0,2.191-0.752,2.736-2.257
		c0.151-0.414,0.227-0.829,0.227-1.242v-0.029h0.056c0.829,0,1.591-0.309,2.287-0.93c0.695-0.621,1.044-1.345,1.044-2.173V6.45
		C212.589,5.604,212.247,4.875,211.562,4.263 M197.462,14.319c0,0.377-0.185,0.702-0.552,0.975
		c-0.368,0.272-0.751,0.408-1.146,0.408c-0.416,0-0.8-0.136-1.147-0.408c-0.35-0.273-0.524-0.608-0.524-1.003V6.445
		c0-0.376,0.181-0.7,0.538-0.973c0.358-0.273,0.735-0.409,1.134-0.409c0.396,0,0.778,0.136,1.146,0.409
		c0.367,0.273,0.552,0.597,0.552,0.973V14.319z M204.305,28.372c0,0.377-0.184,0.701-0.553,0.974
		c-0.367,0.273-0.75,0.409-1.146,0.409c-0.415,0-0.798-0.136-1.147-0.409c-0.349-0.272-0.523-0.606-0.523-1.002v-7.845
		c0-0.377,0.18-0.701,0.538-0.974c0.358-0.272,0.735-0.409,1.133-0.409c0.396,0,0.779,0.137,1.146,0.409
		c0.369,0.273,0.553,0.597,0.553,0.974V28.372z M210.922,14.319c0,0.396-0.174,0.725-0.521,0.988
		c-0.349,0.263-0.73,0.395-1.144,0.395c-0.396,0-0.776-0.14-1.143-0.423c-0.366-0.282-0.551-0.612-0.551-0.988V6.445
		c0-0.376,0.185-0.7,0.551-0.973s0.747-0.409,1.143-0.409c0.413,0,0.795,0.132,1.144,0.395c0.347,0.263,0.521,0.592,0.521,0.987
		V14.319z"/>
	<path clip-path="url(#SVGID_2_)" fill="#004FA2" d="M277.634,29.271c-0.545,1.507-1.46,2.261-2.738,2.261h-14.224
		c-0.734,0-1.411-0.339-2.033-1.016c-0.62-0.677-0.931-1.382-0.931-2.116V6.45c0-0.79,0.32-1.505,0.96-2.144
		c0.639-0.639,1.354-0.96,2.145-0.96h13.941c0.902,0,1.646,0.352,2.23,1.057c0.583,0.703,0.875,1.514,0.875,2.434
		c0,0.414-0.077,0.826-0.226,1.238c-0.545,1.503-1.46,2.253-2.738,2.253h-10.527v3.602h7.142c0.846,0,1.56,0.387,2.143,1.16
		c0.547,0.698,0.819,1.481,0.819,2.349c0,0.415-0.075,0.83-0.226,1.245c-0.547,1.51-1.457,2.264-2.736,2.264h-7.142v3.601h10.527
		c0.847,0,1.553,0.364,2.116,1.089c0.564,0.726,0.848,1.521,0.848,2.389C277.859,28.44,277.782,28.854,277.634,29.271
		 M275.841,26.841c-0.235-0.376-0.551-0.564-0.945-0.564h-12.189v-7.092h8.804c0.394,0,0.713-0.19,0.958-0.57
		c0.245-0.379,0.367-0.777,0.367-1.194s-0.122-0.816-0.367-1.195c-0.245-0.38-0.564-0.57-0.958-0.57h-8.804V8.601h12.189
		c0.395,0,0.715-0.205,0.96-0.615c0.226-0.355,0.338-0.738,0.338-1.149c0-0.447-0.132-0.853-0.396-1.218
		c-0.262-0.363-0.61-0.546-1.044-0.546h-13.952c-0.302,0-0.615,0.156-0.944,0.466c-0.331,0.31-0.496,0.615-0.496,0.917v21.939
		c0,0.263,0.15,0.563,0.452,0.902c0.302,0.338,0.583,0.507,0.849,0.507h14.232c0.395,0,0.715-0.207,0.961-0.62
		c0.226-0.357,0.338-0.743,0.338-1.157C276.193,27.611,276.075,27.217,275.841,26.841"/>
	<path clip-path="url(#SVGID_2_)" fill="#004FA2" d="M139.958,20.947c2.172,0,3.258-1.151,3.258-3.454V17.42h0.057
		c0.828,0,1.589-0.31,2.286-0.931c0.695-0.62,1.044-1.344,1.044-2.172V10c0-0.846-0.339-1.579-1.016-2.2
		c-0.677-0.621-1.449-0.931-2.314-0.931h-0.057V6.841c0-0.902-0.292-1.71-0.875-2.424c-0.583-0.714-1.317-1.071-2.201-1.071h-10.583
		c-0.791,0-1.505,0.32-2.144,0.959c-0.64,0.64-0.96,1.355-0.96,2.145v21.949c0,0.847,0.343,1.58,1.03,2.201
		c0.687,0.62,1.453,0.931,2.299,0.931c0.828,0,1.595-0.315,2.301-0.945c0.705-0.63,1.058-1.349,1.058-2.157v-3.949h3.417v0.056
		c0,1.053,0.295,1.892,0.884,2.511c0.591,0.621,1.411,0.932,2.46,0.932v0.056c0,1.071,0.297,1.923,0.891,2.553
		c0.594,0.63,1.418,0.945,2.474,0.945c1.055,0,1.875-0.315,2.459-0.945c0.585-0.63,0.877-1.481,0.877-2.553
		c0-1.053-0.29-1.897-0.87-2.539c-0.579-0.639-1.392-0.959-2.438-0.959h-0.056c0-1.072-0.286-1.928-0.856-2.568
		c-0.57-0.64-1.379-0.96-2.425-0.96h-0.056v-0.06H139.958z M143.278,26.276c1.105,0,1.659,0.588,1.659,1.764
		c0,1.178-0.554,1.764-1.659,1.764c-1.124,0-1.686-0.586-1.686-1.764C141.592,26.864,142.154,26.276,143.278,26.276 M129.75,8.314
		c-0.395,0-0.725-0.179-0.988-0.534c-0.263-0.356-0.395-0.74-0.395-1.152s0.132-0.791,0.395-1.138
		c0.263-0.347,0.593-0.521,0.988-0.521h4.318c0.395,0,0.725,0.174,0.988,0.521c0.263,0.347,0.395,0.726,0.395,1.138
		c0,0.393-0.141,0.773-0.424,1.138c-0.282,0.366-0.611,0.548-0.988,0.548H129.75z M136.559,17.493h-3.417v-7.165h6.761v3.601
		c-1.049,0-1.869,0.327-2.46,0.977C136.854,15.558,136.559,16.421,136.559,17.493 M138.212,17.447c0-1.169,0.57-1.754,1.711-1.754
		c1.104,0,1.656,0.585,1.656,1.754c0,1.188-0.552,1.783-1.656,1.783C138.782,19.23,138.212,18.635,138.212,17.447"/>
	<path clip-path="url(#SVGID_2_)" fill="#004FA2" d="M231.883,17.509h-0.056v-0.056c0-0.928-0.288-1.747-0.861-2.457
		c-0.574-0.711-1.312-1.066-2.215-1.066h-7v-3.601h6.762c0,1.074,0.298,1.937,0.89,2.589c0.595,0.652,1.419,0.979,2.475,0.979
		s1.876-0.32,2.461-0.96c0.583-0.64,0.876-1.486,0.876-2.54c0-1.053-0.292-1.905-0.875-2.554c-0.583-0.649-1.402-0.973-2.456-0.973
		h-0.056V6.841c0-0.902-0.292-1.709-0.875-2.424c-0.584-0.713-1.317-1.07-2.201-1.07h-7.197c-0.903,0-1.646,0.352-2.229,1.057
		c-0.584,0.705-0.875,1.517-0.875,2.437V6.87h-0.056c-0.866,0-1.637,0.31-2.314,0.931c-0.678,0.621-1.017,1.355-1.017,2.201v4.289
		c0,0.847,0.344,1.581,1.031,2.202c0.686,0.622,1.452,0.931,2.3,0.931h0.056v0.029c0,0.883,0.273,1.672,0.818,2.368
		c0.582,0.752,1.296,1.127,2.143,1.127h7.103v3.602h-6.762c0-1.077-0.296-1.936-0.889-2.578s-1.416-0.964-2.47-0.964
		c-1.053,0-1.872,0.32-2.455,0.96c-0.583,0.639-0.875,1.495-0.875,2.568c0,1.054,0.292,1.891,0.875,2.511
		c0.583,0.621,1.402,0.933,2.456,0.933h0.056v0.056c0,0.828,0.217,1.552,0.649,2.173h-0.028c0.603,0.882,1.383,1.323,2.343,1.323
		h7.451c1.279,0,2.191-0.752,2.736-2.255c0.151-0.414,0.227-0.828,0.227-1.241v-0.056h0.056c0.809,0,1.566-0.307,2.271-0.918
		c0.706-0.611,1.06-1.321,1.06-2.13v-4.347c0-0.846-0.339-1.57-1.017-2.172C233.521,17.811,232.749,17.509,231.883,17.509
		 M231.883,8.602c1.109,0,1.664,0.593,1.664,1.777c0,1.167-0.555,1.75-1.664,1.75c-1.13,0-1.693-0.583-1.693-1.75
		C230.189,9.195,230.753,8.602,231.883,8.602 M220.431,5.417c0.273-0.366,0.626-0.549,1.06-0.549h7.206
		c0.433,0,0.782,0.183,1.045,0.549c0.265,0.366,0.396,0.773,0.396,1.224c0,0.413-0.112,0.798-0.341,1.153
		c-0.263,0.414-0.592,0.62-0.986,0.62h-7.461c-0.396,0-0.726-0.206-0.989-0.62c-0.226-0.355-0.34-0.74-0.34-1.153
		C220.021,6.189,220.158,5.783,220.431,5.417 M221.35,19.016c-0.415,0-0.74-0.187-0.975-0.563c-0.235-0.375-0.354-0.779-0.354-1.211
		c0-0.469,0.133-0.876,0.396-1.224c0.263-0.347,0.621-0.521,1.073-0.521h7.206c0.452,0,0.806,0.174,1.06,0.521
		c0.254,0.348,0.382,0.755,0.382,1.224c0,0.395-0.128,0.789-0.382,1.183c-0.254,0.394-0.569,0.591-0.945,0.591H221.35z
		 M218.311,26.071c-1.106,0-1.659-0.578-1.659-1.736c0-1.195,0.553-1.793,1.659-1.793c1.123,0,1.684,0.598,1.684,1.793
		C219.994,25.493,219.434,26.071,218.311,26.071 M229.863,29.185c-0.264,0.413-0.593,0.619-0.988,0.619h-7.459
		c-0.378,0-0.693-0.197-0.949-0.591c-0.253-0.394-0.38-0.788-0.38-1.182c0-0.45,0.136-0.859,0.41-1.225
		c0.272-0.366,0.626-0.549,1.059-0.549h7.206c0.434,0,0.782,0.183,1.045,0.549c0.265,0.365,0.396,0.774,0.396,1.225
		C230.203,28.443,230.09,28.828,229.863,29.185"/>
	<path clip-path="url(#SVGID_2_)" fill="#004FA2" d="M81.895,29.271c-0.545,1.507-1.459,2.261-2.738,2.261H64.934
		c-0.734,0-1.412-0.339-2.032-1.016c-0.621-0.677-0.931-1.382-0.931-2.116V6.45c0-0.79,0.32-1.505,0.959-2.144
		c0.64-0.639,1.355-0.96,2.145-0.96h13.942c0.902,0,1.646,0.352,2.229,1.057c0.584,0.703,0.875,1.514,0.875,2.434
		c0,0.414-0.075,0.826-0.226,1.238c-0.545,1.503-1.458,2.253-2.737,2.253H68.631v3.602h7.14c0.846,0,1.561,0.387,2.145,1.16
		c0.545,0.698,0.818,1.481,0.818,2.349c0,0.415-0.075,0.83-0.226,1.245c-0.546,1.51-1.458,2.264-2.737,2.264h-7.14v3.601h10.527
		c0.846,0,1.552,0.364,2.116,1.089c0.564,0.726,0.847,1.521,0.847,2.389C82.121,28.44,82.045,28.854,81.895,29.271 M80.103,26.841
		c-0.236-0.376-0.55-0.564-0.945-0.564h-12.19v-7.092h8.803c0.395,0,0.715-0.19,0.959-0.57c0.245-0.379,0.367-0.777,0.367-1.194
		s-0.122-0.816-0.367-1.195c-0.244-0.38-0.564-0.57-0.959-0.57h-8.803V8.601h12.19c0.395,0,0.715-0.205,0.959-0.615
		c0.226-0.355,0.339-0.738,0.339-1.149c0-0.447-0.132-0.853-0.395-1.218c-0.264-0.363-0.612-0.546-1.045-0.546H65.064
		c-0.3,0-0.616,0.156-0.945,0.466c-0.33,0.31-0.495,0.615-0.495,0.917v21.939c0,0.263,0.151,0.563,0.452,0.902
		c0.3,0.338,0.583,0.507,0.847,0.507h14.234c0.395,0,0.715-0.207,0.96-0.62c0.226-0.357,0.339-0.743,0.339-1.157
		C80.456,27.611,80.338,27.217,80.103,26.841"/>
	<path clip-path="url(#SVGID_2_)" fill="#004FA2" d="M59.575,25.651c-0.564-0.725-1.27-1.087-2.116-1.087H46.959V6.45
		c0-0.827-0.353-1.551-1.058-2.173c-0.705-0.621-1.473-0.931-2.3-0.931c-0.828,0-1.59,0.315-2.287,0.946
		c-0.696,0.63-1.043,1.349-1.043,2.158v21.949c0,0.734,0.31,1.439,0.931,2.116s1.298,1.016,2.032,1.016h14.223
		c1.28,0,2.193-0.752,2.738-2.257c0.15-0.413,0.227-0.828,0.227-1.241C60.423,27.169,60.14,26.374,59.575,25.651"/>
	<path clip-path="url(#SVGID_2_)" fill="#FFE01A" d="M44.004,25.825c-1.389,0-2.083,0.713-2.083,2.135
		c0,1.447,0.694,2.17,2.083,2.17c1.343,0,2.016-0.723,2.016-2.17C46.021,26.538,45.347,25.825,44.004,25.825"/>
	<path clip-path="url(#SVGID_2_)" fill="#004FA2" d="M100.314,13.896h0.056c0.867,0,1.64-0.301,2.319-0.903
		c0.678-0.602,1.018-1.334,1.018-2.2V6.45c0-0.847-0.345-1.576-1.033-2.187s-1.456-0.917-2.304-0.917
		c-0.791,0-1.536,0.301-2.233,0.903c-0.755,0.639-1.131,1.372-1.131,2.201v3.976c-2.23,0-3.344,1.157-3.344,3.47v0.056h-3.418V6.45
		c0-0.829-0.353-1.553-1.058-2.173c-0.705-0.62-1.472-0.931-2.3-0.931s-1.59,0.315-2.286,0.946c-0.696,0.63-1.044,1.349-1.044,2.158
		v21.949c0,0.847,0.344,1.58,1.03,2.201c0.687,0.621,1.454,0.931,2.3,0.931c0.828,0,1.595-0.315,2.3-0.945
		c0.705-0.63,1.058-1.35,1.058-2.158v-7.477h3.418v0.028c0,1.073,0.294,1.925,0.885,2.554c0.59,0.631,1.409,0.946,2.459,0.946v3.923
		c0,1.034,0.455,1.862,1.367,2.483l-0.028-0.028c0.62,0.449,1.298,0.674,2.032,0.674c0.827,0,1.589-0.31,2.285-0.931
		c0.697-0.621,1.045-1.346,1.045-2.173v-4.289c0-0.827-0.348-1.556-1.045-2.187c-0.696-0.629-1.458-0.945-2.286-0.945h-0.056v-0.028
		c0-2.323-1.105-3.486-3.314-3.486V17.42C99.211,17.42,100.314,16.245,100.314,13.896 M98.696,6.424
		c0-0.377,0.183-0.703,0.548-0.976c0.365-0.274,0.744-0.412,1.138-0.412c0.412,0,0.791,0.133,1.138,0.397
		c0.346,0.265,0.52,0.595,0.52,0.991v4.362c0,0.398-0.174,0.723-0.52,0.978c-0.347,0.255-0.726,0.383-1.138,0.383
		s-0.796-0.133-1.152-0.397c-0.356-0.264-0.534-0.595-0.534-0.991V6.424z M88.572,11.278c0,0.378-0.178,0.704-0.534,0.98
		c-0.356,0.274-0.731,0.411-1.124,0.411c-0.393,0-0.773-0.143-1.138-0.426c-0.365-0.284-0.547-0.615-0.547-0.993V6.995
		c0-0.379,0.182-0.71,0.547-0.994c0.365-0.283,0.745-0.425,1.138-0.425c0.412,0,0.791,0.133,1.138,0.397
		c0.347,0.266,0.52,0.596,0.52,0.993V11.278z M98.72,24.5c0-0.378,0.183-0.709,0.548-0.993c0.365-0.284,0.745-0.426,1.138-0.426
		c0.413,0,0.792,0.133,1.139,0.398c0.346,0.264,0.52,0.596,0.52,0.992v4.313c0,0.377-0.179,0.703-0.534,0.979
		c-0.356,0.273-0.731,0.41-1.125,0.41c-0.393,0-0.773-0.142-1.138-0.426c-0.365-0.283-0.548-0.614-0.548-0.992V24.5z M97.027,19.221
		c1.104,0,1.656,0.584,1.656,1.754c0,1.188-0.552,1.782-1.656,1.782c-1.142,0-1.711-0.594-1.711-1.782
		C95.316,19.805,95.885,19.221,97.027,19.221"/>
	<path clip-path="url(#SVGID_2_)" fill="#004FA2" d="M187.246,17.509h-0.057v-0.057c0-0.928-0.287-1.747-0.859-2.457
		c-0.575-0.71-1.313-1.065-2.218-1.065h-6.998v-3.602h6.761c0,1.074,0.296,1.938,0.891,2.589c0.594,0.653,1.418,0.979,2.475,0.979
		c1.055,0,1.875-0.32,2.46-0.959c0.584-0.64,0.877-1.486,0.877-2.541c0-1.053-0.292-1.904-0.876-2.553
		c-0.584-0.649-1.401-0.974-2.455-0.974h-0.057V6.841c0-0.902-0.291-1.71-0.876-2.424c-0.583-0.714-1.317-1.071-2.201-1.071h-7.195
		c-0.903,0-1.646,0.353-2.23,1.057c-0.583,0.705-0.874,1.517-0.874,2.438v0.028h-0.057c-0.865,0-1.637,0.31-2.315,0.931
		c-0.678,0.621-1.016,1.355-1.016,2.201v4.29c0,0.847,0.343,1.581,1.031,2.202c0.687,0.621,1.453,0.931,2.3,0.931h0.057v0.028
		c0,0.883,0.272,1.673,0.818,2.369c0.582,0.751,1.296,1.127,2.142,1.127h7.103v3.601h-6.761c0-1.076-0.296-1.936-0.89-2.578
		c-0.593-0.641-1.415-0.964-2.469-0.964s-1.872,0.321-2.456,0.96c-0.584,0.64-0.875,1.496-0.875,2.569
		c0,1.053,0.291,1.891,0.875,2.511c0.584,0.621,1.402,0.934,2.456,0.934h0.057v0.055c0,0.828,0.217,1.552,0.649,2.173h-0.028
		c0.602,0.882,1.383,1.323,2.342,1.323h7.45c1.279,0,2.191-0.752,2.738-2.255c0.15-0.414,0.226-0.828,0.226-1.241V27.98h0.057
		c0.809,0,1.566-0.308,2.271-0.919s1.06-1.321,1.06-2.13v-4.347c0-0.845-0.339-1.57-1.017-2.172
		C188.882,17.811,188.112,17.509,187.246,17.509 M175.407,14.446c0,0.377-0.185,0.701-0.549,0.975
		c-0.364,0.273-0.744,0.41-1.137,0.41c-0.412,0-0.793-0.137-1.139-0.41c-0.348-0.274-0.521-0.608-0.521-1.004v-4.294
		c0-0.395,0.173-0.726,0.521-0.989c0.346-0.263,0.727-0.396,1.139-0.396c0.393,0,0.772,0.137,1.137,0.41s0.549,0.598,0.549,0.975
		V14.446z M175.789,8c-0.228-0.356-0.34-0.741-0.34-1.154c0-0.45,0.137-0.858,0.41-1.224c0.273-0.366,0.626-0.549,1.06-0.549h7.205
		c0.434,0,0.782,0.183,1.046,0.549c0.265,0.366,0.395,0.774,0.395,1.224c0,0.413-0.112,0.798-0.338,1.154
		c-0.264,0.413-0.595,0.619-0.989,0.619h-7.461C176.382,8.619,176.052,8.413,175.789,8 M173.737,26.276
		c-1.105,0-1.657-0.578-1.657-1.734c0-1.196,0.552-1.793,1.657-1.793c1.125,0,1.687,0.597,1.687,1.793
		C175.424,25.698,174.862,26.276,173.737,26.276 M188.893,25.084c0,0.358-0.184,0.669-0.549,0.934
		c-0.367,0.264-0.739,0.396-1.115,0.396c-0.395,0-0.776-0.132-1.143-0.396c-0.366-0.265-0.55-0.585-0.55-0.963v-4.301
		c0-0.397,0.179-0.727,0.535-0.991c0.357-0.263,0.743-0.396,1.157-0.396c0.413,0,0.795,0.128,1.143,0.383s0.521,0.58,0.521,0.976
		V25.084z"/>
	<path clip-path="url(#SVGID_2_)" fill="#004FA2" d="M255.174,4.404c-0.583-0.705-1.325-1.058-2.227-1.058h-13.944
		c-0.885,0-1.622,0.358-2.215,1.072c-0.593,0.714-0.889,1.523-0.889,2.425c0,0.865,0.272,1.646,0.818,2.341
		c0.584,0.771,1.298,1.156,2.146,1.156h3.78v18.059c0,0.828,0.348,1.557,1.043,2.187c0.696,0.63,1.458,0.945,2.287,0.945
		c0.866,0,1.636-0.301,2.313-0.903c0.677-0.602,1.017-1.335,1.017-2.2V10.34h3.783c1.279,0,2.189-0.751,2.736-2.256
		c0.15-0.413,0.227-0.827,0.227-1.241C256.051,5.922,255.758,5.109,255.174,4.404 M246.054,29.883c-1.124,0-1.686-0.588-1.686-1.765
		c0-1.176,0.562-1.764,1.686-1.764c1.104,0,1.658,0.588,1.658,1.764C247.712,29.295,247.158,29.883,246.054,29.883 M247.802,7.892
		c-0.266,0.413-0.597,0.619-0.992,0.619h-7.479c-0.397,0-0.729-0.206-0.991-0.619c-0.228-0.356-0.34-0.741-0.34-1.154
		c0-0.45,0.136-0.858,0.411-1.224c0.272-0.366,0.627-0.549,1.062-0.549h7.226c0.434,0,0.782,0.183,1.047,0.549
		c0.264,0.366,0.397,0.774,0.397,1.224C248.142,7.151,248.026,7.536,247.802,7.892"/>
	<path clip-path="url(#SVGID_2_)" fill="#004FA2" d="M124.604,4.255c-0.583-0.705-1.327-1.057-2.229-1.057h-13.942
		c-0.885,0-1.623,0.357-2.216,1.071c-0.593,0.715-0.889,1.523-0.889,2.425c0,0.865,0.273,1.645,0.819,2.341
		c0.583,0.771,1.298,1.156,2.145,1.156h3.781V28.25c0,0.827,0.348,1.557,1.044,2.188c0.696,0.629,1.458,0.944,2.286,0.944
		c0.866,0,1.637-0.302,2.314-0.902c0.677-0.603,1.016-1.336,1.016-2.201V10.191h3.783c1.279,0,2.191-0.752,2.737-2.256
		c0.151-0.413,0.226-0.827,0.226-1.241C125.479,5.772,125.188,4.959,124.604,4.255 M115.482,29.732
		c-1.124,0-1.686-0.588-1.686-1.764c0-1.175,0.562-1.764,1.686-1.764c1.105,0,1.659,0.589,1.659,1.764
		C117.141,29.145,116.587,29.732,115.482,29.732 M117.23,7.743c-0.265,0.413-0.596,0.619-0.992,0.619h-7.479
		c-0.397,0-0.728-0.206-0.991-0.619c-0.227-0.355-0.341-0.741-0.341-1.154c0-0.45,0.137-0.858,0.411-1.223
		c0.274-0.366,0.628-0.55,1.062-0.55h7.225c0.434,0,0.784,0.184,1.047,0.55c0.265,0.365,0.398,0.773,0.398,1.223
		C117.57,7.001,117.455,7.388,117.23,7.743"/>
	<path clip-path="url(#SVGID_2_)" fill-rule="evenodd" clip-rule="evenodd" fill="#004FA2" d="M22.727,43.784h-3.218
		c0.021,0.344,0.151,0.607,0.391,0.789c0.242,0.183,0.597,0.273,1.066,0.273c0.297,0,0.585-0.053,0.863-0.16
		c0.279-0.106,0.499-0.221,0.66-0.344h0.156v1.129c-0.317,0.128-0.616,0.221-0.898,0.277c-0.281,0.058-0.592,0.086-0.934,0.086
		c-0.88,0-1.554-0.197-2.023-0.594c-0.469-0.396-0.703-0.959-0.703-1.691c0-0.724,0.221-1.297,0.664-1.719
		c0.445-0.424,1.055-0.637,1.828-0.637c0.714,0,1.25,0.182,1.609,0.543c0.36,0.359,0.539,0.878,0.539,1.555V43.784z M21.329,42.96
		c-0.008-0.294-0.081-0.516-0.219-0.664c-0.137-0.147-0.352-0.223-0.644-0.223c-0.271,0-0.493,0.07-0.668,0.211
		c-0.175,0.141-0.272,0.366-0.293,0.676H21.329z"/>
	<rect x="24.6" y="39.64" clip-path="url(#SVGID_2_)" fill="#004FA2" width="1.406" height="6.078"/>
	<path clip-path="url(#SVGID_2_)" fill-rule="evenodd" clip-rule="evenodd" fill="#004FA2" d="M32.534,43.784h-3.218
		c0.021,0.344,0.151,0.607,0.39,0.789c0.243,0.183,0.598,0.273,1.067,0.273c0.297,0,0.584-0.053,0.863-0.16
		c0.278-0.106,0.499-0.221,0.66-0.344h0.156v1.129c-0.317,0.128-0.617,0.221-0.898,0.277c-0.281,0.058-0.592,0.086-0.934,0.086
		c-0.88,0-1.554-0.197-2.023-0.594c-0.469-0.396-0.703-0.959-0.703-1.691c0-0.724,0.221-1.297,0.664-1.719
		c0.445-0.424,1.055-0.637,1.828-0.637c0.713,0,1.25,0.182,1.609,0.543c0.36,0.359,0.539,0.878,0.539,1.555V43.784z M31.136,42.96
		c-0.008-0.294-0.081-0.516-0.219-0.664c-0.138-0.147-0.353-0.223-0.644-0.223c-0.271,0-0.494,0.07-0.668,0.211
		c-0.175,0.141-0.272,0.366-0.293,0.676H31.136z"/>
	<polygon clip-path="url(#SVGID_2_)" fill="#004FA2" points="39.062,45.718 37.425,45.718 36.195,43.808 35.812,44.272 
		35.812,45.718 34.407,45.718 34.407,39.64 35.812,39.64 35.812,43.269 37.329,41.331 38.95,41.331 37.372,43.222 	"/>
	<path clip-path="url(#SVGID_2_)" fill="#004FA2" d="M43.458,45.679c-0.151,0.039-0.311,0.069-0.48,0.09
		c-0.169,0.023-0.376,0.035-0.622,0.035c-0.546,0-0.954-0.11-1.222-0.332c-0.266-0.221-0.399-0.6-0.399-1.137v-2.051h-0.577v-0.953
		h0.577v-1.254h1.407v1.254h1.316v0.953h-1.316v1.555c0,0.154,0.001,0.288,0.004,0.403c0.002,0.114,0.023,0.217,0.062,0.308
		c0.037,0.092,0.101,0.164,0.191,0.219c0.094,0.053,0.23,0.078,0.407,0.078c0.073,0,0.168-0.016,0.285-0.047
		c0.12-0.031,0.203-0.06,0.25-0.086h0.117V45.679z"/>
	<path clip-path="url(#SVGID_2_)" fill="#004FA2" d="M48.358,42.671h-0.125c-0.06-0.021-0.156-0.036-0.289-0.047
		c-0.133-0.01-0.244-0.015-0.332-0.015c-0.201,0-0.378,0.013-0.531,0.038c-0.154,0.026-0.32,0.07-0.496,0.133v2.938h-1.407v-4.387
		h1.407v0.645c0.309-0.266,0.579-0.441,0.808-0.527c0.229-0.088,0.44-0.133,0.633-0.133c0.049,0,0.105,0.002,0.168,0.004
		c0.062,0.003,0.117,0.007,0.164,0.012V42.671z"/>
	<path clip-path="url(#SVGID_2_)" fill-rule="evenodd" clip-rule="evenodd" fill="#004FA2" d="M51.441,45.718h-1.406v-4.387h1.406
		V45.718z M51.48,40.706h-1.484V39.64h1.484V40.706z"/>
	<path clip-path="url(#SVGID_2_)" fill="#004FA2" d="M56.454,45.679c-0.151,0.039-0.311,0.069-0.48,0.09
		c-0.17,0.023-0.377,0.035-0.622,0.035c-0.546,0-0.954-0.11-1.222-0.332c-0.266-0.221-0.399-0.6-0.399-1.137v-2.051h-0.578v-0.953
		h0.578v-1.254h1.407v1.254h1.316v0.953h-1.316v1.555c0,0.154,0.001,0.288,0.004,0.403c0.002,0.114,0.023,0.217,0.062,0.308
		c0.037,0.092,0.1,0.164,0.191,0.219c0.094,0.053,0.23,0.078,0.407,0.078c0.073,0,0.168-0.016,0.285-0.047
		c0.119-0.031,0.203-0.06,0.25-0.086h0.117V45.679z"/>
	<path clip-path="url(#SVGID_2_)" fill-rule="evenodd" clip-rule="evenodd" fill="#004FA2" d="M62.658,43.526
		c0,0.722-0.211,1.291-0.633,1.707c-0.419,0.414-1.009,0.62-1.77,0.62c-0.76,0-1.351-0.206-1.773-0.62
		c-0.419-0.416-0.628-0.985-0.628-1.707c0-0.727,0.21-1.298,0.632-1.711c0.425-0.414,1.014-0.621,1.769-0.621
		c0.766,0,1.357,0.209,1.774,0.625C62.448,42.236,62.658,42.806,62.658,43.526 M60.927,44.593c0.092-0.111,0.159-0.246,0.203-0.402
		c0.047-0.158,0.071-0.377,0.071-0.656c0-0.258-0.024-0.474-0.071-0.648c-0.047-0.174-0.111-0.313-0.195-0.418
		c-0.083-0.106-0.184-0.182-0.301-0.227c-0.117-0.044-0.243-0.066-0.379-0.066c-0.135,0-0.256,0.019-0.363,0.054
		c-0.104,0.038-0.204,0.11-0.301,0.22c-0.086,0.102-0.154,0.241-0.207,0.418c-0.049,0.178-0.074,0.4-0.074,0.668
		c0,0.24,0.023,0.448,0.066,0.625c0.045,0.175,0.11,0.315,0.196,0.422c0.083,0.102,0.182,0.176,0.297,0.223
		c0.117,0.047,0.25,0.07,0.398,0.07c0.128,0,0.249-0.021,0.363-0.062C60.748,44.768,60.847,44.694,60.927,44.593 M61.884,40.706
		h-1.16V39.64h1.16V40.706z M59.787,40.706h-1.161V39.64h1.161V40.706z"/>
	<path clip-path="url(#SVGID_2_)" fill-rule="evenodd" clip-rule="evenodd" fill="#004FA2" d="M69.03,43.526
		c0,0.722-0.211,1.291-0.633,1.707c-0.419,0.414-1.009,0.62-1.769,0.62c-0.761,0-1.352-0.206-1.774-0.62
		c-0.419-0.416-0.628-0.985-0.628-1.707c0-0.727,0.211-1.298,0.632-1.711c0.425-0.414,1.015-0.621,1.77-0.621
		c0.766,0,1.356,0.209,1.773,0.625C68.82,42.236,69.03,42.806,69.03,43.526 M67.3,44.593c0.091-0.111,0.158-0.246,0.203-0.402
		c0.047-0.158,0.07-0.377,0.07-0.656c0-0.258-0.023-0.474-0.07-0.648c-0.047-0.174-0.112-0.313-0.195-0.418
		c-0.084-0.106-0.184-0.182-0.301-0.227c-0.117-0.044-0.244-0.066-0.379-0.066c-0.136,0-0.257,0.019-0.363,0.054
		c-0.105,0.038-0.205,0.11-0.301,0.22c-0.086,0.102-0.155,0.241-0.207,0.418c-0.05,0.178-0.074,0.4-0.074,0.668
		c0,0.24,0.022,0.448,0.066,0.625c0.044,0.175,0.109,0.315,0.195,0.422c0.083,0.102,0.182,0.176,0.297,0.223
		c0.117,0.047,0.25,0.07,0.399,0.07c0.127,0,0.248-0.021,0.363-0.062C67.12,44.768,67.219,44.694,67.3,44.593 M68.257,40.706h-1.16
		V39.64h1.16V40.706z M66.159,40.706h-1.16V39.64h1.16V40.706z"/>
	<path clip-path="url(#SVGID_2_)" fill-rule="evenodd" clip-rule="evenodd" fill="#004FA2" d="M75.183,45.718h-1.406v-0.457
		c-0.242,0.198-0.469,0.344-0.68,0.438s-0.454,0.141-0.73,0.141c-0.534,0-0.961-0.205-1.281-0.617
		c-0.321-0.411-0.481-0.966-0.481-1.664c0-0.372,0.053-0.701,0.16-0.988c0.11-0.289,0.258-0.536,0.446-0.742
		c0.176-0.195,0.392-0.346,0.644-0.453c0.253-0.109,0.505-0.164,0.758-0.164c0.263,0,0.478,0.029,0.644,0.086
		c0.169,0.055,0.343,0.125,0.52,0.211V39.64h1.406V45.718z M73.777,44.507v-2.152c-0.099-0.041-0.203-0.071-0.312-0.09
		c-0.11-0.018-0.21-0.028-0.301-0.028c-0.37,0-0.648,0.117-0.832,0.349c-0.185,0.229-0.278,0.549-0.278,0.957
		c0,0.43,0.075,0.742,0.223,0.938c0.148,0.193,0.387,0.289,0.715,0.289c0.127,0,0.263-0.023,0.406-0.07
		C73.542,44.649,73.668,44.585,73.777,44.507"/>
	<path clip-path="url(#SVGID_2_)" fill-rule="evenodd" clip-rule="evenodd" fill="#004FA2" d="M82.904,45.796
		c0,0.495-0.152,0.881-0.457,1.156c-0.304,0.279-0.696,0.418-1.176,0.418c-0.254,0-0.488-0.012-0.699-0.035
		c-0.208-0.021-0.36-0.043-0.456-0.066v-1.008h0.109c0.078,0.026,0.175,0.049,0.293,0.066c0.117,0.019,0.21,0.026,0.277,0.026
		c0.271,0,0.456-0.079,0.555-0.241c0.099-0.161,0.148-0.427,0.148-0.797v-3.031h-0.832v-0.953h2.238V45.796z M82.904,40.706h-1.496
		V39.64h1.496V40.706z"/>
	<path clip-path="url(#SVGID_2_)" fill-rule="evenodd" clip-rule="evenodd" fill="#004FA2" d="M87.765,44.573v-0.914
		c-0.19,0.016-0.396,0.038-0.617,0.066c-0.222,0.026-0.39,0.058-0.504,0.094c-0.141,0.045-0.249,0.109-0.324,0.195
		c-0.074,0.084-0.11,0.194-0.11,0.332c0,0.092,0.008,0.166,0.024,0.223c0.015,0.058,0.054,0.112,0.117,0.163
		c0.06,0.054,0.131,0.093,0.215,0.118c0.083,0.023,0.213,0.035,0.39,0.035c0.141,0,0.283-0.029,0.426-0.086
		C87.528,44.743,87.655,44.667,87.765,44.573 M87.765,45.253c-0.076,0.058-0.169,0.127-0.281,0.207
		c-0.113,0.081-0.218,0.145-0.317,0.191c-0.138,0.062-0.281,0.108-0.429,0.137c-0.149,0.031-0.312,0.047-0.489,0.047
		c-0.417,0-0.765-0.129-1.047-0.387c-0.281-0.258-0.421-0.587-0.421-0.988c0-0.32,0.071-0.582,0.214-0.785
		c0.144-0.203,0.347-0.363,0.61-0.48c0.26-0.117,0.583-0.2,0.969-0.25c0.385-0.049,0.784-0.087,1.199-0.109v-0.023
		c0-0.242-0.099-0.408-0.297-0.5c-0.198-0.094-0.49-0.141-0.875-0.141c-0.232,0-0.48,0.042-0.742,0.125
		c-0.263,0.081-0.452,0.144-0.567,0.187h-0.129v-1.058c0.149-0.039,0.39-0.084,0.723-0.137c0.336-0.056,0.672-0.082,1.008-0.082
		c0.799,0,1.376,0.124,1.73,0.371c0.357,0.245,0.535,0.631,0.536,1.155v2.985h-1.395V45.253z"/>
	<rect x="94.713" y="42.569" clip-path="url(#SVGID_2_)" fill="#004FA2" width="2.98" height="1.125"/>
	<path clip-path="url(#SVGID_2_)" fill-rule="evenodd" clip-rule="evenodd" fill="#004FA2" d="M104.246,43.464
		c0,0.362-0.056,0.691-0.169,0.988c-0.109,0.297-0.254,0.542-0.433,0.734c-0.188,0.203-0.4,0.357-0.637,0.461
		c-0.237,0.104-0.491,0.157-0.761,0.157c-0.25,0-0.463-0.028-0.637-0.083c-0.175-0.052-0.353-0.127-0.536-0.223v1.828h-1.406v-5.996
		h1.406v0.457c0.217-0.172,0.437-0.311,0.661-0.418c0.226-0.106,0.487-0.16,0.781-0.16c0.547,0,0.971,0.201,1.273,0.602
		C104.092,42.213,104.246,42.764,104.246,43.464 M102.795,43.491c0-0.427-0.073-0.736-0.219-0.93
		c-0.145-0.192-0.376-0.289-0.691-0.289c-0.133,0-0.269,0.021-0.41,0.062c-0.141,0.039-0.275,0.097-0.403,0.172v2.207
		c0.094,0.037,0.195,0.061,0.302,0.07c0.106,0.011,0.212,0.016,0.316,0.016c0.372,0,0.649-0.107,0.832-0.324
		C102.705,44.257,102.795,43.928,102.795,43.491"/>
	<path clip-path="url(#SVGID_2_)" fill="#004FA2" d="M109.32,42.671h-0.125c-0.06-0.021-0.156-0.036-0.289-0.047
		c-0.133-0.01-0.244-0.015-0.332-0.015c-0.201,0-0.378,0.013-0.531,0.038c-0.154,0.026-0.32,0.07-0.496,0.133v2.938h-1.407v-4.387
		h1.407v0.645c0.309-0.266,0.579-0.441,0.808-0.527c0.229-0.088,0.44-0.133,0.633-0.133c0.049,0,0.105,0.002,0.168,0.004
		c0.062,0.003,0.117,0.007,0.164,0.012V42.671z"/>
	<path clip-path="url(#SVGID_2_)" fill-rule="evenodd" clip-rule="evenodd" fill="#004FA2" d="M115.481,43.526
		c0,0.722-0.21,1.291-0.632,1.707c-0.42,0.414-1.01,0.621-1.77,0.621c-0.761,0-1.351-0.207-1.773-0.621
		c-0.42-0.416-0.629-0.985-0.629-1.707c0-0.727,0.211-1.297,0.633-1.711c0.424-0.414,1.014-0.621,1.769-0.621
		c0.766,0,1.357,0.209,1.774,0.625C115.272,42.236,115.481,42.806,115.481,43.526 M113.751,44.593
		c0.091-0.111,0.159-0.246,0.203-0.402c0.047-0.158,0.07-0.377,0.07-0.656c0-0.258-0.023-0.474-0.07-0.648
		c-0.047-0.174-0.112-0.313-0.195-0.418c-0.084-0.106-0.184-0.182-0.301-0.227c-0.117-0.044-0.244-0.066-0.379-0.066
		c-0.136,0-0.257,0.019-0.363,0.055c-0.104,0.037-0.205,0.109-0.301,0.219c-0.086,0.102-0.155,0.241-0.207,0.418
		c-0.05,0.178-0.074,0.4-0.074,0.668c0,0.24,0.022,0.448,0.066,0.625c0.044,0.175,0.11,0.315,0.196,0.422
		c0.083,0.102,0.182,0.176,0.296,0.223c0.118,0.047,0.25,0.07,0.399,0.07c0.127,0,0.248-0.021,0.363-0.062
		C113.571,44.768,113.67,44.694,113.751,44.593"/>
	<path clip-path="url(#SVGID_2_)" fill-rule="evenodd" clip-rule="evenodd" fill="#004FA2" d="M119.268,45.796
		c0,0.495-0.153,0.881-0.457,1.156c-0.305,0.279-0.697,0.418-1.176,0.418c-0.256,0-0.489-0.012-0.699-0.035
		c-0.209-0.021-0.361-0.043-0.457-0.066v-1.008h0.109c0.078,0.026,0.176,0.049,0.293,0.066c0.117,0.019,0.21,0.026,0.277,0.026
		c0.271,0,0.456-0.079,0.555-0.241c0.099-0.161,0.148-0.427,0.148-0.797v-3.031h-0.832v-0.953h2.239V45.796z M119.268,40.706h-1.496
		V39.64h1.496V40.706z"/>
	<path clip-path="url(#SVGID_2_)" fill-rule="evenodd" clip-rule="evenodd" fill="#004FA2" d="M125.792,43.784h-3.218
		c0.021,0.344,0.151,0.607,0.39,0.789c0.243,0.183,0.598,0.273,1.067,0.273c0.297,0,0.585-0.053,0.863-0.16
		c0.279-0.106,0.499-0.221,0.66-0.344h0.156v1.129c-0.317,0.128-0.617,0.221-0.898,0.277c-0.281,0.058-0.592,0.086-0.933,0.086
		c-0.881,0-1.555-0.197-2.024-0.594c-0.469-0.396-0.703-0.959-0.703-1.691c0-0.724,0.221-1.297,0.664-1.719
		c0.445-0.424,1.055-0.637,1.828-0.637c0.714,0,1.25,0.182,1.61,0.543c0.359,0.359,0.538,0.878,0.538,1.555V43.784z M124.394,42.96
		c-0.008-0.294-0.081-0.516-0.219-0.664c-0.137-0.147-0.352-0.223-0.644-0.223c-0.271,0-0.493,0.07-0.668,0.211
		c-0.175,0.141-0.272,0.366-0.293,0.676H124.394z"/>
	<polygon clip-path="url(#SVGID_2_)" fill="#004FA2" points="132.321,45.718 130.684,45.718 129.454,43.808 129.071,44.272 
		129.071,45.718 127.665,45.718 127.665,39.64 129.071,39.64 129.071,43.269 130.587,41.331 132.208,41.331 130.63,43.222 	"/>
	<path clip-path="url(#SVGID_2_)" fill="#004FA2" d="M136.716,45.679c-0.151,0.039-0.312,0.069-0.48,0.09
		c-0.17,0.023-0.377,0.035-0.622,0.035c-0.546,0-0.954-0.11-1.222-0.332c-0.266-0.221-0.399-0.6-0.399-1.137v-2.051h-0.578v-0.953
		h0.578v-1.254h1.407v1.254h1.316v0.953H135.4v1.555c0,0.154,0.001,0.288,0.004,0.403c0.002,0.114,0.023,0.217,0.062,0.308
		c0.036,0.092,0.1,0.164,0.191,0.219c0.094,0.053,0.229,0.078,0.407,0.078c0.072,0,0.168-0.016,0.285-0.047
		c0.119-0.031,0.203-0.06,0.25-0.086h0.117V45.679z"/>
	<path clip-path="url(#SVGID_2_)" fill-rule="evenodd" clip-rule="evenodd" fill="#004FA2" d="M142.756,43.784h-3.218
		c0.021,0.344,0.151,0.607,0.39,0.789c0.243,0.183,0.598,0.273,1.067,0.273c0.297,0,0.584-0.053,0.863-0.16
		c0.279-0.106,0.499-0.221,0.66-0.344h0.156v1.129c-0.317,0.128-0.617,0.221-0.898,0.277c-0.281,0.058-0.592,0.086-0.934,0.086
		c-0.88,0-1.554-0.197-2.023-0.594c-0.469-0.396-0.703-0.959-0.703-1.691c0-0.724,0.221-1.297,0.664-1.719
		c0.445-0.424,1.055-0.637,1.828-0.637c0.713,0,1.25,0.182,1.609,0.543c0.36,0.359,0.539,0.878,0.539,1.555V43.784z M141.358,42.96
		c-0.008-0.294-0.081-0.516-0.219-0.664c-0.138-0.147-0.352-0.223-0.644-0.223c-0.271,0-0.494,0.07-0.668,0.211
		c-0.175,0.141-0.272,0.366-0.293,0.676H141.358z"/>
	<path clip-path="url(#SVGID_2_)" fill-rule="evenodd" clip-rule="evenodd" fill="#004FA2" d="M148.949,43.784h-3.219
		c0.021,0.344,0.151,0.607,0.39,0.789c0.243,0.183,0.598,0.273,1.067,0.273c0.297,0,0.585-0.053,0.863-0.16
		c0.279-0.106,0.499-0.221,0.66-0.344h0.156v1.129c-0.317,0.128-0.617,0.221-0.898,0.277c-0.281,0.058-0.592,0.086-0.934,0.086
		c-0.88,0-1.554-0.197-2.023-0.594c-0.469-0.396-0.703-0.959-0.703-1.691c0-0.724,0.221-1.297,0.664-1.719
		c0.445-0.424,1.055-0.637,1.828-0.637c0.714,0,1.25,0.182,1.609,0.543c0.36,0.359,0.54,0.878,0.54,1.555V43.784z M147.55,42.96
		c-0.008-0.294-0.081-0.516-0.219-0.664c-0.137-0.147-0.352-0.223-0.644-0.223c-0.271,0-0.493,0.07-0.668,0.211
		c-0.175,0.141-0.272,0.366-0.293,0.676H147.55z"/>
	<path clip-path="url(#SVGID_2_)" fill="#004FA2" d="M154.001,42.671h-0.125c-0.06-0.021-0.156-0.036-0.289-0.047
		c-0.133-0.01-0.244-0.015-0.332-0.015c-0.201,0-0.378,0.013-0.531,0.038c-0.154,0.026-0.32,0.07-0.496,0.133v2.938h-1.407v-4.387
		h1.407v0.645c0.309-0.266,0.579-0.441,0.808-0.527c0.229-0.088,0.44-0.133,0.633-0.133c0.049,0,0.105,0.002,0.168,0.004
		c0.062,0.003,0.117,0.007,0.164,0.012V42.671z"/>
	<path clip-path="url(#SVGID_2_)" fill-rule="evenodd" clip-rule="evenodd" fill="#004FA2" d="M157.084,45.718h-1.406v-4.387h1.406
		V45.718z M157.123,40.706h-1.484V39.64h1.484V40.706z"/>
	<path clip-path="url(#SVGID_2_)" fill="#004FA2" d="M163.581,42.608v3.109h-1.414v-2.191c0-0.213-0.005-0.395-0.016-0.543
		c-0.011-0.15-0.039-0.273-0.086-0.367c-0.046-0.094-0.118-0.161-0.214-0.203c-0.094-0.044-0.227-0.066-0.399-0.066
		c-0.138,0-0.272,0.029-0.402,0.086c-0.13,0.055-0.248,0.114-0.352,0.176v3.109h-1.406v-4.387h1.406v0.484
		c0.242-0.189,0.474-0.338,0.695-0.445c0.222-0.106,0.467-0.16,0.735-0.16c0.289,0,0.544,0.065,0.767,0.195
		c0.221,0.128,0.394,0.316,0.519,0.566c0.281-0.236,0.555-0.423,0.82-0.559c0.266-0.135,0.526-0.203,0.781-0.203
		c0.474,0,0.833,0.143,1.078,0.426c0.247,0.284,0.371,0.693,0.371,1.227v2.855h-1.414v-2.191c0-0.216-0.005-0.398-0.016-0.547
		c-0.008-0.148-0.035-0.27-0.082-0.363c-0.044-0.094-0.114-0.161-0.211-0.203c-0.097-0.044-0.231-0.066-0.406-0.066
		c-0.117,0-0.231,0.021-0.344,0.062C163.879,42.448,163.742,42.515,163.581,42.608"/>
	<path clip-path="url(#SVGID_2_)" fill-rule="evenodd" clip-rule="evenodd" fill="#004FA2" d="M170.043,45.718h-1.406v-4.387h1.406
		V45.718z M170.082,40.706h-1.484V39.64h1.484V40.706z"/>
	<path clip-path="url(#SVGID_2_)" fill="#004FA2" d="M176.657,45.718h-1.414v-2.176c0-0.177-0.009-0.353-0.027-0.527
		c-0.018-0.177-0.049-0.307-0.094-0.391c-0.052-0.096-0.129-0.166-0.23-0.211c-0.099-0.044-0.238-0.066-0.418-0.066
		c-0.128,0-0.258,0.021-0.391,0.062c-0.13,0.042-0.271,0.108-0.426,0.199v3.109h-1.406v-4.387h1.406v0.484
		c0.25-0.195,0.49-0.345,0.719-0.449c0.232-0.104,0.488-0.156,0.77-0.156c0.475,0,0.844,0.139,1.109,0.414
		c0.269,0.276,0.402,0.689,0.402,1.239V45.718z"/>
	<path clip-path="url(#SVGID_2_)" fill-rule="evenodd" clip-rule="evenodd" fill="#004FA2" d="M183.151,43.784h-3.22
		c0.021,0.344,0.151,0.607,0.391,0.789c0.243,0.183,0.598,0.273,1.066,0.273c0.297,0,0.585-0.053,0.863-0.16
		c0.279-0.106,0.499-0.221,0.66-0.344h0.156v1.129c-0.317,0.128-0.617,0.221-0.898,0.277c-0.281,0.058-0.592,0.086-0.934,0.086
		c-0.88,0-1.555-0.197-2.022-0.594c-0.47-0.396-0.704-0.959-0.704-1.691c0-0.724,0.222-1.297,0.664-1.719
		c0.445-0.424,1.055-0.637,1.828-0.637c0.714,0,1.25,0.182,1.609,0.543c0.359,0.359,0.54,0.878,0.54,1.555V43.784z M181.752,42.96
		c-0.008-0.294-0.08-0.516-0.219-0.664c-0.137-0.147-0.353-0.223-0.645-0.223c-0.271,0-0.492,0.07-0.668,0.211
		c-0.174,0.141-0.271,0.366-0.293,0.676H181.752z"/>
</g>
</svg>
